<?xml version="1.0" standalone="no"?>
<!DOCTYPE svg PUBLIC "-//W3C//DTD SVG 1.1//EN" "http://www.w3.org/Graphics/SVG/1.1/DTD/svg11.dtd" >
<svg>
<metadata>
Created by FontForge 20090622 at Fri Jun  8 12:31:53 2018
 By deploy user
Copyright (c) 2013 by Paulo R. All rights reserved.
</metadata>
<defs>
<font id="Aspergit-Light" horiz-adv-x="600" >
  <font-face 
    font-family="Aspergit Light"
    font-weight="300"
    font-stretch="normal"
    units-per-em="1000"
    panose-1="2 0 5 5 0 0 0 2 0 4"
    ascent="750"
    descent="-250"
    x-height="500"
    cap-height="750"
    bbox="-190 -250 1200 920"
    underline-thickness="50"
    underline-position="-50"
    unicode-range="U+0020-U+2212"
  />
<missing-glyph horiz-adv-x="550" 
d="M25 -200v1000h500v-1000h-500zM96 750l179 -390l179 390h-358zM75 -76l172 376l-172 376v-752zM475 676l-172 -376l172 -376v752zM275 240l-179 -390h358z" />
    <glyph glyph-name="percent" unicode="&#x30;&#x2f;&#x30;" horiz-adv-x="850" 
d="M584 750l-307 -750h-11l306 750h12zM800 190q0 -79 -55.5 -134.5t-134.5 -55.5t-134.5 55.5t-55.5 134.5t55.5 134.5t134.5 55.5t134.5 -55.5t55.5 -134.5zM790 190q0 74 -53 127t-127 53t-127 -53t-53 -127t53 -127t127 -53t127 53t53 127zM430 560q0 -79 -55.5 -134.5
t-134.5 -55.5t-134.5 55.5t-55.5 134.5t55.5 134.5t134.5 55.5t134.5 -55.5t55.5 -134.5zM420 560q0 74 -53 127t-127 53t-127 -53t-53 -127t53 -127t127 -53t127 53t53 127z" />
    <glyph glyph-name="AE" unicode="AE" horiz-adv-x="928" 
d="M478 0v195h-332l-86 -195h-10l331 750h497v-10h-390v-360h360v-10h-360v-360h390v-10h-400zM388 740l-237 -535h327v535h-90z" />
    <glyph glyph-name="ae" unicode="ae" horiz-adv-x="1090" 
d="M550 245q2 -98 72 -166.5t168 -68.5t169 71l8 -7q-72 -74 -177 -74q-85 0 -151 50.5t-89 129.5v-180h-10v180q-23 -79 -89 -129.5t-151 -50.5q-104 0 -177 73t-73 177t73 177t177 73q89 0 158 -57t87 -143q17 86 86 143t159 57q104 0 177 -73t73 -177v-5h-490zM60 250
q0 -99 70.5 -169.5t169.5 -70.5q97 0 168.5 67.5t71.5 172.5q-1 101 -72 170.5t-168 69.5q-99 0 -169.5 -70.5t-70.5 -169.5zM790 490q-98 0 -168 -69t-72 -166h480q-2 97 -72.5 166t-167.5 69z" />
    <glyph glyph-name="OE" unicode="OE" horiz-adv-x="875" 
d="M425 0q-155 0 -265 110t-110 265t110 265t265 110h400v-10h-390v-360h360v-10h-360v-360h390v-10h-400zM60 375q0 -151 107 -258t258 -107v730q-151 0 -258 -107t-107 -258z" />
    <glyph glyph-name="oe" unicode="oe" horiz-adv-x="1090" 
d="M550 245q2 -98 72 -166.5t168 -68.5t169 71l8 -7q-72 -74 -177 -74q-90 0 -159 56.5t-86 142.5q-18 -86 -87 -142.5t-158 -56.5q-104 0 -177 73t-73 177t73 177t177 73q89 0 158 -57t87 -143q17 86 86 143t159 57q104 0 177 -73t73 -177v-5h-490zM60 250
q0 -99 70.5 -169.5t169.5 -70.5t169.5 70.5t70.5 169.5t-70.5 169.5t-169.5 70.5t-169.5 -70.5t-70.5 -169.5zM790 490q-98 0 -168 -69t-72 -166h480q-2 97 -72.5 166t-167.5 69z" />
    <glyph glyph-name="ellipsis" unicode="&#x2e;&#x2e;&#x2e;" horiz-adv-x="210" 
d="M150 70h10v-70h-10v70zM100 70h10v-70h-10v70zM50 70h10v-70h-10v70z" />
    <glyph glyph-name="perthousand" unicode="&#x30;&#x2f;&#x30;&#x30;" horiz-adv-x="1250" 
d="M584 750l-307 -750h-11l306 750h12zM800 190q0 -79 -55.5 -134.5t-134.5 -55.5t-134.5 55.5t-55.5 134.5t55.5 134.5t134.5 55.5t134.5 -55.5t55.5 -134.5zM790 190q0 74 -53 127t-127 53t-127 -53t-53 -127t53 -127t127 -53t127 53t53 127zM430 560q0 -79 -55.5 -134.5
t-134.5 -55.5t-134.5 55.5t-55.5 134.5t55.5 134.5t134.5 55.5t134.5 -55.5t55.5 -134.5zM420 560q0 74 -53 127t-127 53t-127 -53t-53 -127t53 -127t127 -53t127 53t53 127zM1200 190q0 -79 -55.5 -134.5t-134.5 -55.5t-134.5 55.5t-55.5 134.5t55.5 134.5t134.5 55.5
t134.5 -55.5t55.5 -134.5zM1190 190q0 74 -53 127t-127 53t-127 -53t-53 -127t53 -127t127 -53t127 53t53 127z" />
    <glyph glyph-name=".notdef" horiz-adv-x="550" 
d="M25 -200v1000h500v-1000h-500zM96 750l179 -390l179 390h-358zM75 -76l172 376l-172 376v-752zM475 676l-172 -376l172 -376v752zM275 240l-179 -390h358z" />
    <glyph glyph-name=".null" horiz-adv-x="0" 
 />
    <glyph glyph-name="nonmarkingreturn" horiz-adv-x="333" 
 />
    <glyph glyph-name="space" unicode=" " horiz-adv-x="500" 
 />
    <glyph glyph-name="exclam" unicode="!" horiz-adv-x="110" 
d="M50 250v500h10v-500h-10zM60 0h-10v100h10v-100z" />
    <glyph glyph-name="quotedbl" unicode="&#x22;" horiz-adv-x="140" 
d="M50 600v150h10v-150h-10zM80 600v150h10v-150h-10z" />
    <glyph glyph-name="numbersign" unicode="#" horiz-adv-x="698" 
d="M270 500l-27 -101l290 1l27 100h10l-27 -100h103l2 -10h-107l-75 -281l179 1l3 -9l-185 -1l-26 -100h-10l27 100h-291l-26 -100h-9l26 100h-102l-2 9h107l74 280h-178l-3 10h184l27 101h9zM240 389l-74 -280h290l75 281z" />
    <glyph glyph-name="dollar" unicode="$" horiz-adv-x="480" 
d="M235 -70v70h-185v10h185v362q-37 11 -56 17.5t-48 21.5t-43.5 32.5t-26 47.5t-11.5 69q0 77 54 132.5t131 57.5v70h10v-70h185v-10h-185v-363q36 -10 55.5 -17t48 -22t43.5 -32.5t26.5 -47.5t11.5 -68q0 -78 -54 -133t-131 -57v-70h-10zM60 560q0 -45 13.5 -77
t42.5 -51.5t52.5 -29.5t66.5 -22v360q-73 -2 -124 -54.5t-51 -125.5zM420 190q0 45 -13.5 76.5t-42 51t-53 29.5t-66.5 22v-359q72 2 123.5 54.5t51.5 125.5z" />
    <glyph glyph-name="ampersand" unicode="&#x26;" 
d="M50 250q0 62 28.5 115.5t76.5 88.5q-42 63 -29.5 138t73.5 121q65 46 142.5 34.5t124.5 -73.5q37 -52 37 -114h-10q0 58 -36 108q-44 59 -118 69.5t-133 -33.5q-58 -44 -70.5 -114.5t27.5 -130.5l291 -393q86 73 86 184h10q0 -117 -90 -192l43 -58h-13l-38 51
q-67 -51 -152 -51q-104 0 -177 73t-73 177zM60 250q0 -99 70.5 -169.5t169.5 -70.5q81 0 146 49l-285 386q-47 -33 -74 -84.5t-27 -110.5z" />
    <glyph glyph-name="quotesingle" unicode="'" horiz-adv-x="110" 
d="M50 600v150h10v-150h-10z" />
    <glyph glyph-name="parenleft" unicode="(" horiz-adv-x="175" 
d="M50 65v620q0 31 22 53t53 22v-10q-27 0 -46 -19t-19 -46v-620q0 -27 19 -46t46 -19v-10q-31 0 -53 22t-22 53z" />
    <glyph glyph-name="parenright" unicode=")" horiz-adv-x="175" 
d="M125 685v-620q0 -31 -22 -53t-53 -22v10q27 0 46 19t19 46v620q0 27 -19 46t-46 19v10q31 0 53 -22t22 -53z" />
    <glyph glyph-name="asterisk" unicode="*" horiz-adv-x="376" 
d="M194 750v-178l125 125l7 -7l-130 -130l130 -132l-7 -7l-125 127v-179h-10v179l-127 -127l-7 7l132 132l-132 130l7 7l127 -125v178h10z" />
    <glyph glyph-name="plus" unicode="+" horiz-adv-x="480" 
d="M235 370h-185v10h185v185h10v-185h185v-10h-185v-185h-10v185z" />
    <glyph glyph-name="comma" unicode="," horiz-adv-x="110" 
d="M50 10h10v-110h-10v110z" />
    <glyph glyph-name="hyphen" unicode="-" horiz-adv-x="350" 
d="M50 295v10h250v-10h-250z" />
    <glyph glyph-name="period" unicode="." horiz-adv-x="110" 
d="M50 70h10v-70h-10v70z" />
    <glyph glyph-name="slash" unicode="/" horiz-adv-x="418" 
d="M368 750l-307 -750h-11l306 750h12z" />
    <glyph glyph-name="zero" unicode="0" horiz-adv-x="480" 
d="M50 190v370q0 79 55.5 134.5t134.5 55.5t134.5 -55.5t55.5 -134.5v-370q0 -79 -55.5 -134.5t-134.5 -55.5t-134.5 55.5t-55.5 134.5zM420 190v370q0 74 -53 127t-127 53t-127 -53t-53 -127v-370q0 -74 53 -127t127 -53t127 53t53 127z" />
    <glyph glyph-name="one" unicode="1" horiz-adv-x="200" 
d="M50 740v10h100v-750h-10v740h-90z" />
    <glyph glyph-name="two" unicode="2" horiz-adv-x="480" 
d="M393 447l-323 -437h360v-10h-373v10l328 442q44 61 33 134t-71 118q-59 44 -133 33.5t-118 -69.5q-36 -50 -36 -108h-10q0 62 37 114q47 62 124.5 73.5t142.5 -34.5q62 -47 73.5 -124.5t-34.5 -141.5z" />
    <glyph glyph-name="three" unicode="3" horiz-adv-x="480" 
d="M420 560q0 74 -53 127t-127 53t-127 -53t-53 -127h-10q0 79 55.5 134.5t134.5 55.5t134.5 -55.5t55.5 -134.5q0 -67 -41.5 -119t-105.5 -66q64 -15 105.5 -66.5t41.5 -118.5q0 -79 -55.5 -134.5t-134.5 -55.5t-134.5 55.5t-55.5 134.5h10q0 -74 53 -127t127 -53t127 53
t53 127t-53 127t-127 53v10q76 0 128 53t52 127z" />
    <glyph glyph-name="four" unicode="4" horiz-adv-x="500" 
d="M50 245l224 505h10l-219 -495h375v245h10v-500h-10v245h-390z" />
    <glyph glyph-name="five" unicode="5" horiz-adv-x="530" 
d="M53 73l7 7q70 -70 170 -70t170 70t70 170t-70 170t-170 70t-170 -70h-10v330h430v-10h-420v-307q74 68 174.5 66.5t172.5 -72.5q73 -74 73 -177.5t-73 -176.5t-177 -73t-177 73z" />
    <glyph glyph-name="six" unicode="6" horiz-adv-x="601" 
d="M84 376l216 374h11l-184 -319q59 57 141.5 67.5t156.5 -31.5q90 -52 117 -152t-25 -189q-52 -90 -152 -117t-190 25q-89 53 -116 153t25 189zM92 371q-49 -86 -23.5 -182t111.5 -146q85 -50 182 -24t146 112q50 85 24 182t-112 146t-182 23.5t-146 -111.5z" />
    <glyph glyph-name="seven" unicode="7" horiz-adv-x="476" 
d="M50 740v10h376v-10l-327 -740h-12l328 740h-365z" />
    <glyph glyph-name="eight" unicode="8" 
d="M170 620q0 54 38 92t92 38t92 -38t38 -92q0 -43 -25 -77t-64 -47q89 -14 149 -84t60 -162q0 -104 -73 -177t-177 -73t-177 73t-73 177q0 92 59.5 162t149.5 84q-39 13 -64 47t-25 77zM60 250q0 -99 70.5 -169.5t169.5 -70.5t169.5 70.5t70.5 169.5q0 98 -70 169t-170 71
t-170 -71t-70 -169zM180 620q0 -50 35 -85t85 -35t85 35t35 85t-35 85t-85 35t-85 -35t-35 -85z" />
    <glyph glyph-name="nine" unicode="9" horiz-adv-x="601" 
d="M517 374l-216 -374h-11l184 319q-59 -57 -141.5 -67.5t-156.5 31.5q-90 52 -117 152t25 189q52 90 152 117t190 -25q89 -53 116 -153t-25 -189zM509 379q49 86 23.5 182t-111.5 146q-85 50 -182 24t-146 -112q-50 -85 -24 -182t112 -146t182 -23.5t146 111.5z" />
    <glyph glyph-name="colon" unicode=":" horiz-adv-x="110" 
d="M50 70h10v-70h-10v70zM50 500h10v-70h-10v70z" />
    <glyph glyph-name="semicolon" unicode=";" horiz-adv-x="110" 
d="M50 500h10v-70h-10v70zM50 10h10v-110h-10v110z" />
    <glyph glyph-name="less" unicode="&#x3c;" horiz-adv-x="390" 
d="M50 369v12l290 171v-12l-280 -165l280 -166v-11z" />
    <glyph glyph-name="equal" unicode="=" horiz-adv-x="480" 
d="M430 530h-380v10h380v-10zM430 209h-380v10h380v-10z" />
    <glyph glyph-name="greater" unicode="&#x3e;" horiz-adv-x="390" 
d="M340 381v-12l-290 -171v11l280 166l-280 165v12z" />
    <glyph glyph-name="question" unicode="?" horiz-adv-x="480" 
d="M230 250v60h10q74 0 127 53t53 127v70q0 74 -53 127t-127 53t-127 -53t-53 -127h-10q0 79 55.5 134.5t134.5 55.5t134.5 -55.5t55.5 -134.5v-70q0 -79 -55.5 -134.5t-134.5 -55.5v-50h-10zM240 0h-10v100h10v-100z" />
    <glyph glyph-name="at" unicode="@" horiz-adv-x="850" 
d="M50 250q0 155 110 265t265 110t265 -110t110 -265t-110 -265t-265 -110t-265 110t-110 265zM60 250q0 -151 107 -258t258 -107q136 0 240 91v204q-23 -79 -89 -129.5t-151 -50.5q-103 0 -176.5 73t-73.5 177t73.5 177t176.5 73t176.5 -73t73.5 -177v-265q115 107 115 265
q0 151 -107 258t-258 107t-258 -107t-107 -258zM185 250q0 -99 70.5 -169.5t169.5 -70.5q98 0 169 69t71 171q0 99 -70.5 169.5t-169.5 70.5t-169.5 -70.5t-70.5 -169.5z" />
    <glyph glyph-name="A" unicode="A" horiz-adv-x="865" 
d="M805 0l-86 195h-573l-86 -195h-10l331 750h103l331 -750h-10zM388 740l-237 -535h563l-236 535h-90z" />
    <glyph glyph-name="B" unicode="B" 
d="M50 0v750h310q79 0 134.5 -55.5t55.5 -134.5q0 -67 -41.5 -119t-105.5 -66q64 -15 105.5 -66.5t41.5 -118.5q0 -79 -55.5 -134.5t-134.5 -55.5h-310zM60 740v-360h307q72 3 122.5 55t50.5 125q0 74 -53 127t-127 53h-300zM367 370h-307v-360h300q74 0 127 53t53 127
q0 72 -50.5 124.5t-122.5 55.5z" />
    <glyph glyph-name="C" unicode="C" horiz-adv-x="741" 
d="M684 117l7 -7q-109 -110 -265 -110t-265 110q-110 110 -110 265t110 265q109 110 265 110t265 -110l-7 -7q-70 70 -164 95t-188 0t-164 -95q-106 -107 -106 -258t106 -258q70 -70 164 -95t188 0t164 95z" />
    <glyph glyph-name="D" unicode="D" horiz-adv-x="700" 
d="M50 0v750h225q155 0 265 -110t110 -265t-110 -265t-265 -110h-225zM60 740v-730h215q151 0 258 107t107 258t-107 258t-258 107h-215z" />
    <glyph glyph-name="E" unicode="E" horiz-adv-x="500" 
d="M50 0v750h400v-10h-390v-360h360v-10h-360v-360h390v-10h-400z" />
    <glyph glyph-name="F" unicode="F" horiz-adv-x="500" 
d="M50 0v750h400v-10h-390v-360h360v-10h-360v-370h-10z" />
    <glyph glyph-name="G" unicode="G" horiz-adv-x="741" 
d="M168 117q106 -106 256.5 -106.5t256.5 103.5v186h10v-190q-109 -110 -265 -110t-265 110q-110 110 -110 265t110 265q109 110 265 110t265 -110l-7 -7q-70 70 -164 95t-188 0t-164 -95q-106 -107 -106 -258t106 -258z" />
    <glyph glyph-name="H" unicode="H" horiz-adv-x="550" 
d="M60 370v-370h-10v750h10v-370h430v370h10v-750h-10v370h-430z" />
    <glyph glyph-name="I" unicode="I" horiz-adv-x="110" 
d="M50 0v750h10v-750h-10z" />
    <glyph glyph-name="J" unicode="J" horiz-adv-x="290" 
d="M230 190v560h10v-560q0 -79 -55.5 -134.5t-134.5 -55.5v10q74 0 127 53t53 127z" />
    <glyph glyph-name="K" unicode="K" horiz-adv-x="564" 
d="M501 0l-334 367l-107 -117v-250h-10v750h10v-485l441 485h13l-341 -375l341 -375h-13z" />
    <glyph glyph-name="L" unicode="L" horiz-adv-x="500" 
d="M50 0v750h10v-740h390v-10h-400z" />
    <glyph glyph-name="M" unicode="M" horiz-adv-x="1011" 
d="M50 750h100l355 -618l356 618h100v-750h-10v740h-84l-356 -618h-12l-355 618h-84v-740h-10v750z" />
    <glyph glyph-name="N" unicode="N" horiz-adv-x="787" 
d="M50 0v750h100l577 -734v734h10v-750h-10l-582 740h-85v-740h-10z" />
    <glyph glyph-name="O" unicode="O" horiz-adv-x="850" 
d="M50 375q0 155 110 265t265 110t265 -110t110 -265t-110 -265t-265 -110t-265 110t-110 265zM60 375q0 -151 107 -258t258 -107t258 107t107 258t-107 258t-258 107t-258 -107t-107 -258z" />
    <glyph glyph-name="P" unicode="P" horiz-adv-x="700" 
d="M50 0v750h325q114 0 194.5 -80.5t80.5 -194.5t-80.5 -194.5t-194.5 -80.5h-315v-200h-10zM60 740v-530h315q109 0 187 78t78 187t-78 187t-187 78h-315z" />
    <glyph glyph-name="Q" unicode="Q" horiz-adv-x="852" 
d="M794 0l-106 106q-110 -107 -264 -106t-263 110q-110 110 -110 265t110 265q109 110 265 110t265 -110q109 -109 110 -263.5t-106 -263.5l106 -106zM168 117q106 -106 256 -107t257 103l-99 99l7 7l99 -99q68 70 91.5 163.5t-1.5 187t-94 162.5q-70 70 -164 95t-188 0
t-164 -95q-106 -107 -106 -258t106 -258z" />
    <glyph glyph-name="R" unicode="R" horiz-adv-x="700" 
d="M354 200h-294v-200h-10v750h325q114 0 194.5 -80.5t80.5 -194.5t-80.5 -194.5t-194.5 -80.5h-7l200 -200h-14zM60 740v-530h315q109 0 187 78t78 187t-78 187t-187 78h-315z" />
    <glyph glyph-name="S" unicode="S" horiz-adv-x="480" 
d="M240 0h-190v10h190q74 0 127 53t53 127q0 53 -20.5 88t-53 52.5t-72 29.5l-79 24.5t-72 30.5t-53 54.5t-20.5 90.5q0 79 55.5 134.5t134.5 55.5h190v-10h-190q-74 0 -127 -53t-53 -127q0 -53 20.5 -88t53 -52.5t72 -29.5l79 -24.5t72 -30.5t53 -54.5t20.5 -90.5
q0 -79 -55.5 -134.5t-134.5 -55.5z" />
    <glyph glyph-name="T" unicode="T" 
d="M550 750v-10h-245v-740h-10v740h-245v10h500z" />
    <glyph glyph-name="U" unicode="U" horiz-adv-x="650" 
d="M590 275v475h10v-475q0 -114 -80.5 -194.5t-194.5 -80.5t-194.5 80.5t-80.5 194.5v475h10v-475q0 -109 78 -187t187 -78t187 78t78 187z" />
    <glyph glyph-name="V" unicode="V" horiz-adv-x="865" 
d="M477 10l328 740h10l-331 -750h-103l-331 750h10l327 -740h90z" />
    <glyph glyph-name="W" unicode="W" horiz-adv-x="1222" 
d="M834 10l328 740h10l-331 -750h-103l-127 288l-127 -288h-103l-331 750h10l327 -740h90l128 290h11l128 -290h90z" />
    <glyph glyph-name="X" unicode="X" horiz-adv-x="608" 
d="M304 367l-243 -367h-11l249 375l-248 375h11l242 -366l242 366h12l-248 -375l248 -375h-10z" />
    <glyph glyph-name="Y" unicode="Y" horiz-adv-x="838" 
d="M413 0v200l-363 550h11l357 -541l358 541h12l-365 -550v-200h-10z" />
    <glyph glyph-name="Z" unicode="Z" 
d="M50 100l487 640h-487v10h498v-10l-488 -643v-87h490v-10h-500v100z" />
    <glyph glyph-name="bracketleft" unicode="[" horiz-adv-x="175" 
d="M60 0h65v-10h-75v770h75v-10h-65v-750z" />
    <glyph glyph-name="backslash" unicode="\" horiz-adv-x="418" 
d="M357 0l-307 750h12l306 -750h-11z" />
    <glyph glyph-name="bracketright" unicode="]" horiz-adv-x="175" 
d="M50 0h65v750h-65v10h75v-770h-75v10z" />
    <glyph glyph-name="underscore" unicode="_" horiz-adv-x="480" 
d="M430 -20h-380v10h380v-10z" />
    <glyph glyph-name="grave" unicode="`" horiz-adv-x="234" 
d="M179 666l-129 76l5 8l129 -76z" />
    <glyph glyph-name="a" unicode="a" 
d="M540 0v180q-23 -79 -89 -129.5t-151 -50.5q-104 0 -177 73t-73 177t73 177t177 73t177 -73t73 -177v-250h-10zM60 250q0 -99 70.5 -169.5t169.5 -70.5q98 0 169 69t71 171q0 99 -70.5 169.5t-169.5 70.5t-169.5 -70.5t-70.5 -169.5z" />
    <glyph glyph-name="b" unicode="b" 
d="M60 180v-180h-10v750h10v-431q23 79 89.5 130t150.5 51q104 0 177 -73t73 -177t-73 -177t-177 -73q-85 0 -151 50.5t-89 129.5zM540 250q0 99 -70.5 169.5t-169.5 70.5q-98 0 -169 -69.5t-71 -170.5q0 -102 71 -171t169 -69q99 0 169.5 70.5t70.5 169.5z" />
    <glyph glyph-name="c" unicode="c" horiz-adv-x="527" 
d="M469 80l7 -7q-74 -73 -177 -73t-177 73q-73 73 -73 177t73 177q74 73 177 73t177 -73l-7 -7q-70 70 -169.5 70t-170.5 -70q-70 -70 -70 -170t70 -170q71 -70 170.5 -70t169.5 70z" />
    <glyph glyph-name="d" unicode="d" 
d="M540 0v180q-23 -79 -89 -129.5t-151 -50.5q-104 0 -177 73t-73 177t73 177t177 73q84 0 150.5 -51t89.5 -130v431h10v-750h-10zM60 250q0 -99 70.5 -169.5t169.5 -70.5q98 0 169 69t71 171q0 101 -71 170.5t-169 69.5q-99 0 -169.5 -70.5t-70.5 -169.5z" />
    <glyph glyph-name="e" unicode="e" 
d="M60 245q2 -98 72 -166.5t168 -68.5t169 71l8 -7q-72 -74 -177 -74q-104 0 -177 73t-73 177t73 177t177 73t177 -73t73 -177v-5h-490zM300 490q-98 0 -168 -69t-72 -166h480q-2 97 -72.5 166t-167.5 69z" />
    <glyph glyph-name="f" unicode="f" horiz-adv-x="350" 
d="M50 0v500q0 104 73 177t177 73v-10q-99 0 -169.5 -70.5t-70.5 -169.5v-245h240v-10h-240v-245h-10z" />
    <glyph glyph-name="g" unicode="g" 
d="M121 -175l7 8q71 -73 172 -73q99 0 169.5 70.5t70.5 169.5v181q-23 -79 -89.5 -130t-150.5 -51q-104 0 -177 73t-73 177t73 177t177 73q85 0 151 -50.5t89 -129.5v180h10v-500q0 -104 -73 -177t-177 -73q-106 0 -179 75zM60 250q0 -99 70.5 -169.5t169.5 -70.5
q98 0 169 69.5t71 170.5q0 102 -71 171t-169 69q-99 0 -169.5 -70.5t-70.5 -169.5z" />
    <glyph glyph-name="h" unicode="h" 
d="M540 0v250q0 99 -70.5 169.5t-169.5 70.5q-98 0 -169 -69.5t-71 -170.5v-250h-10v750h10v-431q23 79 89.5 130t150.5 51q104 0 177 -73t73 -177v-250h-10z" />
    <glyph glyph-name="i" unicode="i" horiz-adv-x="110" 
d="M50 0v500h10v-500h-10zM50 750h10v-100h-10v100z" />
    <glyph glyph-name="j" unicode="j" horiz-adv-x="110" 
d="M50 -60v560h10v-560q0 -79 -55.5 -134.5t-134.5 -55.5v10q74 0 127 53t53 127zM50 750h10v-100h-10v100z" />
    <glyph glyph-name="k" unicode="k" horiz-adv-x="479" 
d="M60 750v-629l320 379h14l-213 -252l248 -248h-13l-241 241l-115 -137v-104h-10v750h10z" />
    <glyph glyph-name="l" unicode="l" horiz-adv-x="110" 
d="M50 0v750h10v-750h-10z" />
    <glyph glyph-name="m" unicode="m" horiz-adv-x="850" 
d="M420 0v250q0 99 -53 169.5t-127 70.5q-73 0 -126.5 -67.5t-53.5 -162.5v-260h-10v500h10v-169q19 75 68.5 122t111.5 47q67 0 118.5 -54.5t66.5 -138.5q14 83 66 138t119 55q79 0 134.5 -73t55.5 -177v-250h-10v250q0 99 -53 169.5t-127 70.5t-127 -70.5t-53 -169.5v-250
h-10z" />
    <glyph glyph-name="n" unicode="n" 
d="M50 0v500h10v-181q23 79 89.5 130t150.5 51q104 0 177 -73t73 -177v-250h-10v250q0 99 -70.5 169.5t-169.5 70.5q-97 0 -168.5 -67.5t-71.5 -162.5v-260h-10z" />
    <glyph glyph-name="o" unicode="o" 
d="M50 250q0 104 73 177t177 73t177 -73t73 -177t-73 -177t-177 -73t-177 73t-73 177zM60 250q0 -99 70.5 -169.5t169.5 -70.5t169.5 70.5t70.5 169.5t-70.5 169.5t-169.5 70.5t-169.5 -70.5t-70.5 -169.5z" />
    <glyph glyph-name="p" unicode="p" 
d="M60 500v-180q23 79 89 129.5t151 50.5q104 0 177 -73t73 -177t-73 -177t-177 -73q-84 0 -150.5 51t-89.5 130v-431h-10v750h10zM540 250q0 99 -70.5 169.5t-169.5 70.5q-98 0 -169 -69t-71 -171q0 -101 71 -170.5t169 -69.5q99 0 169.5 70.5t70.5 169.5z" />
    <glyph glyph-name="q" unicode="q" 
d="M540 320v180h10v-750h-10v431q-23 -79 -89.5 -130t-150.5 -51q-104 0 -177 73t-73 177t73 177t177 73q85 0 151 -50.5t89 -129.5zM60 250q0 -99 70.5 -169.5t169.5 -70.5q98 0 169 69.5t71 170.5q0 102 -71 171t-169 69q-99 0 -169.5 -70.5t-70.5 -169.5z" />
    <glyph glyph-name="r" unicode="r" horiz-adv-x="350" 
d="M50 0v500h10v-181q23 79 89.5 130t150.5 51v-10q-97 0 -168.5 -67.5t-71.5 -162.5v-260h-10z" />
    <glyph glyph-name="s" unicode="s" horiz-adv-x="355" 
d="M305 500v-10h-127q-49 0 -83.5 -34t-34.5 -83q0 -40 18 -65.5t45.5 -35l59 -20t59 -21t45.5 -37t18 -67.5q0 -53 -37.5 -90t-90.5 -37h-127v10h127q49 0 83.5 34t34.5 83q0 47 -25 73t-61.5 36.5l-72.5 21.5t-61 38.5t-25 76.5q0 53 37.5 90t90.5 37h127z" />
    <glyph glyph-name="t" unicode="t" horiz-adv-x="355" 
d="M60 490v-490h-10v750h10v-250h245v-10h-245z" />
    <glyph glyph-name="u" unicode="u" 
d="M550 500v-250q0 -104 -73 -177t-177 -73t-177 73t-73 177v250h10v-250q0 -99 70.5 -169.5t169.5 -70.5t169.5 70.5t70.5 169.5v250h10z" />
    <glyph glyph-name="v" unicode="v" horiz-adv-x="553" 
d="M276 10l217 490h10l-220 -500h-13l-220 500h10z" />
    <glyph glyph-name="w" unicode="w" horiz-adv-x="850" 
d="M420 250v250h10v-260q0 -95 53.5 -162.5t126.5 -67.5q74 0 127 70.5t53 169.5v250h10v-250q0 -104 -55.5 -177t-134.5 -73q-67 0 -119 54.5t-66 138.5q-15 -84 -66.5 -138.5t-118.5 -54.5q-79 0 -134.5 73t-55.5 177v250h10v-250q0 -99 53 -169.5t127 -70.5t127 70.5
t53 169.5z" />
    <glyph glyph-name="x" unicode="x" horiz-adv-x="442" 
d="M221 242l-160 -242h-11l166 250l-166 250h11l160 -241l159 241h12l-165 -250l165 -250h-10z" />
    <glyph glyph-name="y" unicode="y" horiz-adv-x="551" 
d="M501 500l-330 -750h-12l111 250l-220 500h10l215 -488l216 488h10z" />
    <glyph glyph-name="z" unicode="z" horiz-adv-x="483" 
d="M50 490v10h380v-10l-366 -480h369v-10h-380v10l365 480h-368z" />
    <glyph glyph-name="braceleft" unicode="{" horiz-adv-x="225" 
d="M50 370v10h50v305q0 31 22 53t53 22v-10q-27 0 -46 -19t-19 -46v-620q0 -27 19 -46t46 -19v-10q-31 0 -53 22t-22 53v305h-50z" />
    <glyph glyph-name="bar" unicode="|" horiz-adv-x="110" 
d="M60 -10h-10v770h10v-770z" />
    <glyph glyph-name="braceright" unicode="}" horiz-adv-x="225" 
d="M175 380v-10h-50v-305q0 -31 -22 -53t-53 -22v10q27 0 46 19t19 46v620q0 27 -19 46t-46 19v10q31 0 53 -22t22 -53v-305h50z" />
    <glyph glyph-name="exclamdown" unicode="&#xa1;" horiz-adv-x="110" 
d="M50 -250v500h10v-500h-10zM50 500h10v-100h-10v100z" />
    <glyph glyph-name="cent" unicode="&#xa2;" horiz-adv-x="527" 
d="M305 0v-50h-10v50q-102 2 -172 73q-73 73 -73 177t73 177q70 70 172 72v51h10v-51q100 -2 172 -72l-7 -7q-70 68 -165 70v-480q97 2 165 70l7 -7q-71 -71 -172 -73zM130 80q67 -67 165 -70v479q-98 -2 -165 -69q-70 -70 -70 -170t70 -170z" />
    <glyph glyph-name="brokenbar" unicode="&#xa6;" horiz-adv-x="110" 
d="M60 -10h-10v336h10v-336zM60 760v-334h-10v334h10z" />
    <glyph glyph-name="dieresis" unicode="&#xa8;" horiz-adv-x="300" 
d="M240 750h10v-70h-10v70zM50 750h10v-70h-10v70z" />
    <glyph glyph-name="plusminus" unicode="&#xb1;" horiz-adv-x="480" 
d="M235 370h-185v10h185v185h10v-185h185v-10h-185v-185h-10v185zM430 145h-380v10h380v-10z" />
    <glyph glyph-name="acute" unicode="&#xb4;" horiz-adv-x="234" 
d="M184 742l-129 -76l-5 8l129 76z" />
    <glyph glyph-name="mu" unicode="&#xb5;" 
d="M540 0v180q-23 -79 -89 -129.5t-151 -50.5t-151 50.5t-89 129.5v-430h-10v750h10v-250q0 -99 70.5 -169.5t169.5 -70.5q96 0 166 67t74 163v260h10v-500h-10z" />
    <glyph glyph-name="paragraph" unicode="&#xb6;" 
d="M305 740v-990h-10v500q-102 2 -173.5 74.5t-71.5 175.5q0 104 73 177t177 73h250v-10h-90v-990h-10v990h-145z" />
    <glyph glyph-name="periodcentered" unicode="&#xb7;" horiz-adv-x="110" 
d="M50 410h10v-70h-10v70z" />
    <glyph glyph-name="cedilla" unicode="&#xb8;" horiz-adv-x="142" 
d="M50 -100l31 105h11l-41 -136z" />
    <glyph glyph-name="questiondown" unicode="&#xbf;" horiz-adv-x="300" 
d="M250 250v-60h-10q-74 0 -127 -53t-53 -127v-70q0 -74 53 -127t127 -53t127 53t53 127h10q0 -79 -55.5 -134.5t-134.5 -55.5t-134.5 55.5t-55.5 134.5v70q0 79 55.5 134.5t134.5 55.5v50h10zM240 500h10v-100h-10v100z" />
    <glyph glyph-name="Agrave" unicode="&#xc0;" horiz-adv-x="865" 
d="M805 0l-86 195h-573l-86 -195h-10l331 750h103l331 -750h-10zM388 740l-237 -535h563l-236 535h-90zM494 770l-129 76l5 8l129 -76z" />
    <glyph glyph-name="Aacute" unicode="&#xc1;" horiz-adv-x="865" 
d="M805 0l-86 195h-573l-86 -195h-10l331 750h103l331 -750h-10zM388 740l-237 -535h563l-236 535h-90zM499 846l-129 -76l-5 8l129 76z" />
    <glyph glyph-name="Acircumflex" unicode="&#xc2;" horiz-adv-x="865" 
d="M805 0l-86 195h-573l-86 -195h-10l331 750h103l331 -750h-10zM388 740l-237 -535h563l-236 535h-90zM432 900l150 -150h-14l-136 136l-136 -136h-14z" />
    <glyph glyph-name="Atilde" unicode="&#xc3;" horiz-adv-x="865" 
d="M805 0l-86 195h-573l-86 -195h-10l331 750h103l331 -750h-10zM388 740l-237 -535h563l-236 535h-90zM501 781l33 32l10 -3l-41 -40l-140 37l-33 -32l-10 3l41 40z" />
    <glyph glyph-name="Adieresis" unicode="&#xc4;" horiz-adv-x="865" 
d="M805 0l-86 195h-573l-86 -195h-10l331 750h103l331 -750h-10zM388 740l-237 -535h563l-236 535h-90zM522 840h10v-70h-10v70zM332 840h10v-70h-10v70z" />
    <glyph glyph-name="Aring" unicode="&#xc5;" horiz-adv-x="865" 
d="M805 0l-86 195h-573l-86 -195h-10l331 750h103l331 -750h-10zM388 740l-237 -535h563l-236 535h-90zM357 845q0 31 22 53t53 22t53 -22t22 -53t-22 -53t-53 -22t-53 22t-22 53zM367 845q0 -27 19 -46t46 -19t46 19t19 46t-19 46t-46 19t-46 -19t-19 -46z" />
    <glyph glyph-name="Ccedilla" unicode="&#xc7;" horiz-adv-x="741" 
d="M349 -100l30 102q-127 16 -218 108q-110 110 -110 265t110 265q109 110 265 110t265 -110l-7 -7q-70 70 -164 95t-188 0t-164 -95q-106 -107 -106 -258t106 -258q70 -70 164 -95t188 0t164 95l7 -7q-60 -61 -139.5 -89t-161.5 -20l-40 -132z" />
    <glyph glyph-name="Egrave" unicode="&#xc8;" horiz-adv-x="500" 
d="M50 0v750h400v-10h-390v-360h360v-10h-360v-360h390v-10h-400zM312 770l-129 76l5 8l129 -76z" />
    <glyph glyph-name="Eacute" unicode="&#xc9;" horiz-adv-x="500" 
d="M50 0v750h400v-10h-390v-360h360v-10h-360v-360h390v-10h-400zM317 846l-129 -76l-5 8l129 76z" />
    <glyph glyph-name="Ecircumflex" unicode="&#xca;" horiz-adv-x="500" 
d="M50 0v750h400v-10h-390v-360h360v-10h-360v-360h390v-10h-400zM250 920l150 -150h-14l-136 136l-136 -136h-14z" />
    <glyph glyph-name="Edieresis" unicode="&#xcb;" horiz-adv-x="500" 
d="M50 0v750h400v-10h-390v-360h360v-10h-360v-360h390v-10h-400zM340 840h10v-70h-10v70zM150 840h10v-70h-10v70z" />
    <glyph glyph-name="Igrave" unicode="&#xcc;" horiz-adv-x="234" 
d="M112 0v750h10v-750h-10zM179 770l-129 76l5 8l129 -76z" />
    <glyph glyph-name="Iacute" unicode="&#xcd;" horiz-adv-x="234" 
d="M112 0v750h10v-750h-10zM184 846l-129 -76l-5 8l129 76z" />
    <glyph glyph-name="Icircumflex" unicode="&#xce;" horiz-adv-x="400" 
d="M195 0v750h10v-750h-10zM200 900l150 -150h-14l-136 136l-136 -136h-14z" />
    <glyph glyph-name="Idieresis" unicode="&#xcf;" horiz-adv-x="210" 
d="M150 840h10v-70h-10v70zM50 840h10v-70h-10v70zM100 0v750h10v-750h-10z" />
    <glyph glyph-name="Eth" unicode="&#xd0;" horiz-adv-x="795" 
d="M50 370v10h95v370h225q155 0 265 -110t110 -265t-110 -265t-265 -110h-225v370h-95zM155 740v-360h95v-10h-95v-360h215q151 0 258 107t107 258t-107 258t-258 107h-215z" />
    <glyph glyph-name="Ntilde" unicode="&#xd1;" horiz-adv-x="787" 
d="M50 0v750h100l577 -734v734h10v-750h-10l-582 740h-85v-740h-10zM462 781l33 32l10 -3l-41 -40l-140 37l-33 -32l-10 3l41 40z" />
    <glyph glyph-name="Ograve" unicode="&#xd2;" horiz-adv-x="850" 
d="M50 375q0 155 110 265t265 110t265 -110t110 -265t-110 -265t-265 -110t-265 110t-110 265zM60 375q0 -151 107 -258t258 -107t258 107t107 258t-107 258t-258 107t-258 -107t-107 -258zM487 770l-129 76l5 8l129 -76z" />
    <glyph glyph-name="Oacute" unicode="&#xd3;" horiz-adv-x="850" 
d="M50 375q0 155 110 265t265 110t265 -110t110 -265t-110 -265t-265 -110t-265 110t-110 265zM60 375q0 -151 107 -258t258 -107t258 107t107 258t-107 258t-258 107t-258 -107t-107 -258zM492 846l-129 -76l-5 8l129 76z" />
    <glyph glyph-name="Ocircumflex" unicode="&#xd4;" horiz-adv-x="850" 
d="M50 375q0 155 110 265t265 110t265 -110t110 -265t-110 -265t-265 -110t-265 110t-110 265zM60 375q0 -151 107 -258t258 -107t258 107t107 258t-107 258t-258 107t-258 -107t-107 -258zM425 900l150 -150h-14l-136 136l-136 -136h-14z" />
    <glyph glyph-name="Otilde" unicode="&#xd5;" horiz-adv-x="850" 
d="M50 375q0 155 110 265t265 110t265 -110t110 -265t-110 -265t-265 -110t-265 110t-110 265zM60 375q0 -151 107 -258t258 -107t258 107t107 258t-107 258t-258 107t-258 -107t-107 -258zM494 781l33 32l10 -3l-41 -40l-140 37l-33 -32l-10 3l41 40z" />
    <glyph glyph-name="Odieresis" unicode="&#xd6;" horiz-adv-x="850" 
d="M50 375q0 155 110 265t265 110t265 -110t110 -265t-110 -265t-265 -110t-265 110t-110 265zM60 375q0 -151 107 -258t258 -107t258 107t107 258t-107 258t-258 107t-258 -107t-107 -258zM515 840h10v-70h-10v70zM325 840h10v-70h-10v70z" />
    <glyph glyph-name="multiply" unicode="&#xd7;" horiz-adv-x="376" 
d="M188 368l-131 -131l-7 7l131 131l-131 131l7 7l131 -131l131 131l7 -7l-131 -131l131 -131l-7 -7z" />
    <glyph glyph-name="Oslash" unicode="&#xd8;" horiz-adv-x="850" 
d="M50 11l105 104q-105 108 -105 260q0 155 110 265t265 110q152 0 263 -108l105 104l7 -7l-105 -104q105 -110 105 -260q0 -155 -110 -265t-265 -110t-263 108l-105 -104zM60 375q0 -148 102 -253l519 513q-107 105 -256 105q-151 0 -258 -107t-107 -258zM790 375
q0 146 -102 253l-519 -513q107 -105 256 -105q151 0 258 107t107 258z" />
    <glyph glyph-name="Ugrave" unicode="&#xd9;" horiz-adv-x="650" 
d="M590 275v475h10v-475q0 -114 -80.5 -194.5t-194.5 -80.5t-194.5 80.5t-80.5 194.5v475h10v-475q0 -109 78 -187t187 -78t187 78t78 187zM387 750l-129 76l5 8l129 -76z" />
    <glyph glyph-name="Uacute" unicode="&#xda;" horiz-adv-x="650" 
d="M590 275v475h10v-475q0 -114 -80.5 -194.5t-194.5 -80.5t-194.5 80.5t-80.5 194.5v475h10v-475q0 -109 78 -187t187 -78t187 78t78 187zM392 826l-129 -76l-5 8l129 76z" />
    <glyph glyph-name="Ucircumflex" unicode="&#xdb;" horiz-adv-x="650" 
d="M590 275v475h10v-475q0 -114 -80.5 -194.5t-194.5 -80.5t-194.5 80.5t-80.5 194.5v475h10v-475q0 -109 78 -187t187 -78t187 78t78 187zM325 900l150 -150h-14l-136 136l-136 -136h-14z" />
    <glyph glyph-name="Udieresis" unicode="&#xdc;" horiz-adv-x="650" 
d="M590 275v475h10v-475q0 -114 -80.5 -194.5t-194.5 -80.5t-194.5 80.5t-80.5 194.5v475h10v-475q0 -109 78 -187t187 -78t187 78t78 187zM415 820h10v-70h-10v70zM225 820h10v-70h-10v70z" />
    <glyph glyph-name="Yacute" unicode="&#xdd;" horiz-adv-x="838" 
d="M413 0v200l-363 550h11l357 -541l358 541h12l-365 -550v-200h-10zM486 826l-129 -76l-5 8l129 76z" />
    <glyph glyph-name="Thorn" unicode="&#xde;" horiz-adv-x="480" 
d="M430 375q0 -79 -55.5 -134.5t-134.5 -55.5h-180v-185h-10v750h10v-185h180q79 0 134.5 -55.5t55.5 -134.5zM420 375q0 74 -53 127t-127 53h-180v-360h180q74 0 127 53t53 127z" />
    <glyph glyph-name="germandbls" unicode="&#xdf;" horiz-adv-x="530" 
d="M50 610v10h50q0 54 38 92t92 38t92 -38t38 -92q0 -43 -25 -77t-64 -47q89 -14 149 -84t60 -162q0 -104 -73 -177t-177 -73v10q99 0 169.5 70.5t70.5 169.5q0 98 -70 169t-170 71v10q50 0 85 35t35 85t-35 85t-85 35t-85 -35t-35 -85v-620h-10v610h-50z" />
    <glyph glyph-name="agrave" unicode="&#xe0;" 
d="M540 0v180q-23 -79 -89 -129.5t-151 -50.5q-104 0 -177 73t-73 177t73 177t177 73t177 -73t73 -177v-250h-10zM60 250q0 -99 70.5 -169.5t169.5 -70.5q98 0 169 69t71 171q0 99 -70.5 169.5t-169.5 70.5t-169.5 -70.5t-70.5 -169.5zM362 520l-129 76l5 8l129 -76z" />
    <glyph glyph-name="aacute" unicode="&#xe1;" 
d="M540 0v180q-23 -79 -89 -129.5t-151 -50.5q-104 0 -177 73t-73 177t73 177t177 73t177 -73t73 -177v-250h-10zM60 250q0 -99 70.5 -169.5t169.5 -70.5q98 0 169 69t71 171q0 99 -70.5 169.5t-169.5 70.5t-169.5 -70.5t-70.5 -169.5zM367 596l-129 -76l-5 8l129 76z" />
    <glyph glyph-name="acircumflex" unicode="&#xe2;" 
d="M540 0v180q-23 -79 -89 -129.5t-151 -50.5q-104 0 -177 73t-73 177t73 177t177 73t177 -73t73 -177v-250h-10zM60 250q0 -99 70.5 -169.5t169.5 -70.5q98 0 169 69t71 171q0 99 -70.5 169.5t-169.5 70.5t-169.5 -70.5t-70.5 -169.5zM300 650l150 -150h-14l-136 136
l-136 -136h-14z" />
    <glyph glyph-name="atilde" unicode="&#xe3;" 
d="M540 0v180q-23 -79 -89 -129.5t-151 -50.5q-104 0 -177 73t-73 177t73 177t177 73t177 -73t73 -177v-250h-10zM60 250q0 -99 70.5 -169.5t169.5 -70.5q98 0 169 69t71 171q0 99 -70.5 169.5t-169.5 70.5t-169.5 -70.5t-70.5 -169.5zM369 531l33 32l10 -3l-41 -40l-140 37
l-33 -32l-10 3l41 40z" />
    <glyph glyph-name="adieresis" unicode="&#xe4;" 
d="M540 0v180q-23 -79 -89 -129.5t-151 -50.5q-104 0 -177 73t-73 177t73 177t177 73t177 -73t73 -177v-250h-10zM60 250q0 -99 70.5 -169.5t169.5 -70.5q98 0 169 69t71 171q0 99 -70.5 169.5t-169.5 70.5t-169.5 -70.5t-70.5 -169.5zM390 590h10v-70h-10v70zM200 590h10
v-70h-10v70z" />
    <glyph glyph-name="aring" unicode="&#xe5;" 
d="M540 0v180q-23 -79 -89 -129.5t-151 -50.5q-104 0 -177 73t-73 177t73 177t177 73t177 -73t73 -177v-250h-10zM60 250q0 -99 70.5 -169.5t169.5 -70.5q98 0 169 69t71 171q0 99 -70.5 169.5t-169.5 70.5t-169.5 -70.5t-70.5 -169.5zM225 595q0 31 22 53t53 22t53 -22
t22 -53t-22 -53t-53 -22t-53 22t-22 53zM235 595q0 -27 19 -46t46 -19t46 19t19 46t-19 46t-46 19t-46 -19t-19 -46z" />
    <glyph glyph-name="ccedilla" unicode="&#xe7;" horiz-adv-x="527" 
d="M242 -100l30 101q-88 10 -150 72q-73 73 -73 177t73 177q74 73 177 73t177 -73l-7 -7q-70 70 -169.5 70t-170.5 -70q-70 -70 -70 -170t70 -170q71 -70 170.5 -70t169.5 70l7 -7q-80 -80 -194 -73l-39 -131z" />
    <glyph glyph-name="egrave" unicode="&#xe8;" 
d="M60 245q2 -98 72 -166.5t168 -68.5t169 71l8 -7q-72 -74 -177 -74q-104 0 -177 73t-73 177t73 177t177 73t177 -73t73 -177v-5h-490zM300 490q-98 0 -168 -69t-72 -166h480q-2 97 -72.5 166t-167.5 69zM362 520l-129 76l5 8l129 -76z" />
    <glyph glyph-name="eacute" unicode="&#xe9;" 
d="M60 245q2 -98 72 -166.5t168 -68.5t169 71l8 -7q-72 -74 -177 -74q-104 0 -177 73t-73 177t73 177t177 73t177 -73t73 -177v-5h-490zM300 490q-98 0 -168 -69t-72 -166h480q-2 97 -72.5 166t-167.5 69zM367 596l-129 -76l-5 8l129 76z" />
    <glyph glyph-name="ecircumflex" unicode="&#xea;" 
d="M60 245q2 -98 72 -166.5t168 -68.5t169 71l8 -7q-72 -74 -177 -74q-104 0 -177 73t-73 177t73 177t177 73t177 -73t73 -177v-5h-490zM300 490q-98 0 -168 -69t-72 -166h480q-2 97 -72.5 166t-167.5 69zM300 650l150 -150h-14l-136 136l-136 -136h-14z" />
    <glyph glyph-name="edieresis" unicode="&#xeb;" 
d="M60 245q2 -98 72 -166.5t168 -68.5t169 71l8 -7q-72 -74 -177 -74q-104 0 -177 73t-73 177t73 177t177 73t177 -73t73 -177v-5h-490zM300 490q-98 0 -168 -69t-72 -166h480q-2 97 -72.5 166t-167.5 69zM390 590h10v-70h-10v70zM200 590h10v-70h-10v70z" />
    <glyph glyph-name="igrave" unicode="&#xec;" horiz-adv-x="234" 
d="M112 0v500h10v-500h-10zM179 520l-129 76l5 8l129 -76z" />
    <glyph glyph-name="iacute" unicode="&#xed;" horiz-adv-x="234" 
d="M112 0v500h10v-500h-10zM184 596l-129 -76l-5 8l129 76z" />
    <glyph glyph-name="icircumflex" unicode="&#xee;" horiz-adv-x="400" 
d="M195 0v500h10v-500h-10zM200 650l150 -150h-14l-136 136l-136 -136h-14z" />
    <glyph glyph-name="idieresis" unicode="&#xef;" horiz-adv-x="210" 
d="M100 0v500h10v-500h-10zM150 590h10v-70h-10v70zM50 590h10v-70h-10v70z" />
    <glyph glyph-name="eth" unicode="&#xf0;" horiz-adv-x="601" 
d="M406 750h11l-58 -100l158 -274q52 -89 25 -189t-116 -153q-90 -52 -190 -25t-152 117q-52 89 -25 189t117 152q74 42 156.5 31.5t141.5 -67.5l-121 209l-52 -90h-11l58 99l-58 101h11l52 -91zM509 371q-50 86 -146 111.5t-182 -23.5t-112 -146t24 -182q49 -86 146 -112
t182 24q86 50 111.5 146t-23.5 182z" />
    <glyph glyph-name="ntilde" unicode="&#xf1;" 
d="M50 0v500h10v-181q23 79 89.5 130t150.5 51q104 0 177 -73t73 -177v-250h-10v250q0 99 -70.5 169.5t-169.5 70.5q-97 0 -168.5 -67.5t-71.5 -162.5v-260h-10zM369 531l33 32l10 -3l-41 -40l-140 37l-33 -32l-10 3l41 40z" />
    <glyph glyph-name="ograve" unicode="&#xf2;" 
d="M50 250q0 104 73 177t177 73t177 -73t73 -177t-73 -177t-177 -73t-177 73t-73 177zM60 250q0 -99 70.5 -169.5t169.5 -70.5t169.5 70.5t70.5 169.5t-70.5 169.5t-169.5 70.5t-169.5 -70.5t-70.5 -169.5zM362 520l-129 76l5 8l129 -76z" />
    <glyph glyph-name="oacute" unicode="&#xf3;" 
d="M367 596l-129 -76l-5 8l129 76zM50 250q0 104 73 177t177 73t177 -73t73 -177t-73 -177t-177 -73t-177 73t-73 177zM60 250q0 -99 70.5 -169.5t169.5 -70.5t169.5 70.5t70.5 169.5t-70.5 169.5t-169.5 70.5t-169.5 -70.5t-70.5 -169.5z" />
    <glyph glyph-name="ocircumflex" unicode="&#xf4;" 
d="M50 250q0 104 73 177t177 73t177 -73t73 -177t-73 -177t-177 -73t-177 73t-73 177zM60 250q0 -99 70.5 -169.5t169.5 -70.5t169.5 70.5t70.5 169.5t-70.5 169.5t-169.5 70.5t-169.5 -70.5t-70.5 -169.5zM300 650l150 -150h-14l-136 136l-136 -136h-14z" />
    <glyph glyph-name="otilde" unicode="&#xf5;" 
d="M50 250q0 104 73 177t177 73t177 -73t73 -177t-73 -177t-177 -73t-177 73t-73 177zM60 250q0 -99 70.5 -169.5t169.5 -70.5t169.5 70.5t70.5 169.5t-70.5 169.5t-169.5 70.5t-169.5 -70.5t-70.5 -169.5zM369 531l33 32l10 -3l-41 -40l-140 37l-33 -32l-10 3l41 40z" />
    <glyph glyph-name="odieresis" unicode="&#xf6;" 
d="M50 250q0 104 73 177t177 73t177 -73t73 -177t-73 -177t-177 -73t-177 73t-73 177zM60 250q0 -99 70.5 -169.5t169.5 -70.5t169.5 70.5t70.5 169.5t-70.5 169.5t-169.5 70.5t-169.5 -70.5t-70.5 -169.5zM390 590h10v-70h-10v70zM200 590h10v-70h-10v70z" />
    <glyph glyph-name="divide" unicode="&#xf7;" horiz-adv-x="480" 
d="M50 370v10h380v-10h-380zM245 185h-10v70h10v-70zM245 495h-10v70h10v-70z" />
    <glyph glyph-name="oslash" unicode="&#xf8;" 
d="M550 493l-69 -69q69 -72 69 -174q0 -104 -73 -177t-177 -73q-100 0 -173 70l-70 -70l-7 7l70 70q-70 73 -70 173q0 104 73 177t177 73q102 0 174 -69l69 69zM60 250q0 -96 67 -166l339 339q-69 67 -166 67q-99 0 -169.5 -70.5t-70.5 -169.5zM540 250q0 97 -67 166
l-339 -339q70 -67 166 -67q99 0 169.5 70.5t70.5 169.5z" />
    <glyph glyph-name="ugrave" unicode="&#xf9;" 
d="M550 500v-250q0 -104 -73 -177t-177 -73t-177 73t-73 177v250h10v-250q0 -99 70.5 -169.5t169.5 -70.5t169.5 70.5t70.5 169.5v250h10zM362 500l-129 76l5 8l129 -76z" />
    <glyph glyph-name="uacute" unicode="&#xfa;" 
d="M550 500v-250q0 -104 -73 -177t-177 -73t-177 73t-73 177v250h10v-250q0 -99 70.5 -169.5t169.5 -70.5t169.5 70.5t70.5 169.5v250h10zM367 576l-129 -76l-5 8l129 76z" />
    <glyph glyph-name="ucircumflex" unicode="&#xfb;" 
d="M550 500v-250q0 -104 -73 -177t-177 -73t-177 73t-73 177v250h10v-250q0 -99 70.5 -169.5t169.5 -70.5t169.5 70.5t70.5 169.5v250h10zM300 650l150 -150h-14l-136 136l-136 -136h-14z" />
    <glyph glyph-name="udieresis" unicode="&#xfc;" 
d="M550 500v-250q0 -104 -73 -177t-177 -73t-177 73t-73 177v250h10v-250q0 -99 70.5 -169.5t169.5 -70.5t169.5 70.5t70.5 169.5v250h10zM390 570h10v-70h-10v70zM200 570h10v-70h-10v70z" />
    <glyph glyph-name="yacute" unicode="&#xfd;" horiz-adv-x="551" 
d="M501 500l-330 -750h-12l111 250l-220 500h10l215 -488l216 488h10zM342 576l-129 -76l-5 8l129 76z" />
    <glyph glyph-name="thorn" unicode="&#xfe;" 
d="M50 -250v1000h10v-431q23 79 89.5 130t150.5 51q104 0 177 -73t73 -177t-73 -177t-177 -73q-85 0 -151 50.5t-89 129.5v-430h-10zM300 490q-98 0 -169 -69.5t-71 -170.5q0 -102 71 -171t169 -69q99 0 169.5 70.5t70.5 169.5t-70.5 169.5t-169.5 70.5z" />
    <glyph glyph-name="ydieresis" unicode="&#xff;" horiz-adv-x="551" 
d="M501 500l-330 -750h-12l111 250l-220 500h10l215 -488l216 488h10zM365 570h10v-70h-10v70zM175 570h10v-70h-10v70z" />
    <glyph glyph-name="Lslash" unicode="&#x141;" horiz-adv-x="584" 
d="M55 321l-5 8l84 48v373h10v-367l79 46l5 -8l-84 -49v-362h390v-10h-400v366z" />
    <glyph glyph-name="lslash" unicode="&#x142;" horiz-adv-x="278" 
d="M55 321l-5 8l84 48v373h10v-367l79 46l5 -8l-84 -49v-372h-10v366z" />
    <glyph glyph-name="Scaron" unicode="&#x160;" horiz-adv-x="480" 
d="M240 0h-190v10h190q74 0 127 53t53 127q0 53 -20.5 88t-53 52.5t-72 29.5l-79 24.5t-72 30.5t-53 54.5t-20.5 90.5q0 79 55.5 134.5t134.5 55.5h190v-10h-190q-74 0 -127 -53t-53 -127q0 -53 20.5 -88t53 -52.5t72 -29.5l79 -24.5t72 -30.5t53 -54.5t20.5 -90.5
q0 -79 -55.5 -134.5t-134.5 -55.5zM154 870l86 -86l86 86h14l-100 -100l-100 100h14z" />
    <glyph glyph-name="scaron" unicode="&#x161;" horiz-adv-x="355" 
d="M305 500v-10h-127q-49 0 -83.5 -34t-34.5 -83q0 -40 18 -65.5t45.5 -35l59 -20t59 -21t45.5 -37t18 -67.5q0 -53 -37.5 -90t-90.5 -37h-127v10h127q49 0 83.5 34t34.5 83q0 47 -25 73t-61.5 36.5l-72.5 21.5t-61 38.5t-25 76.5q0 53 37.5 90t90.5 37h127zM91 620l86 -86
l86 86h14l-100 -100l-100 100h14z" />
    <glyph glyph-name="Ydieresis" unicode="&#x178;" horiz-adv-x="838" 
d="M413 0v200l-363 550h11l357 -541l358 541h12l-365 -550v-200h-10zM509 820h10v-70h-10v70zM319 820h10v-70h-10v70z" />
    <glyph glyph-name="Zcaron" unicode="&#x17d;" 
d="M50 100l487 640h-487v10h498v-10l-488 -643v-87h490v-10h-500v100zM214 870l86 -86l86 86h14l-100 -100l-100 100h14z" />
    <glyph glyph-name="zcaron" unicode="&#x17e;" horiz-adv-x="483" 
d="M50 490v10h380v-10l-366 -480h369v-10h-380v10l365 480h-368zM155 620l86 -86l86 86h14l-100 -100l-100 100h14z" />
    <glyph glyph-name="florin" unicode="&#x192;" horiz-adv-x="350" 
d="M300 490h-240v-490q0 -104 -73 -177t-177 -73v10q99 0 169.5 70.5t70.5 169.5v500q0 104 73 177t177 73v-10q-99 0 -169.5 -70.5t-70.5 -169.5h240v-10z" />
    <glyph glyph-name="circumflex" unicode="&#x2c6;" horiz-adv-x="400" 
d="M200 750l150 -150h-14l-136 136l-136 -136h-14z" />
    <glyph glyph-name="caron" unicode="&#x2c7;" horiz-adv-x="300" 
d="M64 750l86 -86l86 86h14l-100 -100l-100 100h14z" />
    <glyph glyph-name="ring" unicode="&#x2da;" horiz-adv-x="250" 
d="M50 675q0 31 22 53t53 22t53 -22t22 -53t-22 -53t-53 -22t-53 22t-22 53zM60 675q0 -27 19 -46t46 -19t46 19t19 46t-19 46t-46 19t-46 -19t-19 -46z" />
    <glyph glyph-name="tilde" unicode="&#x2dc;" horiz-adv-x="324" 
d="M231 713l33 32l10 -3l-41 -40l-140 37l-33 -32l-10 3l41 40z" />
    <glyph glyph-name="endash" unicode="&#x2013;" horiz-adv-x="480" 
d="M430 370h-380v10h380v-10z" />
    <glyph glyph-name="emdash" unicode="&#x2014;" horiz-adv-x="550" 
d="M500 370h-450v10h450v-10z" />
    <glyph glyph-name="quoteleft" unicode="&#x2018;" horiz-adv-x="130" 
d="M50 600v150h10v-140h20v-10h-30z" />
    <glyph glyph-name="quoteright" unicode="&#x2019;" horiz-adv-x="130" 
d="M80 750v-150h-10v140h-20v10h30z" />
    <glyph glyph-name="quotesinglbase" unicode="&#x201a;" horiz-adv-x="130" 
d="M80 50v-150h-10v140h-20v10h30z" />
    <glyph glyph-name="quotedblleft" unicode="&#x201c;" horiz-adv-x="170" 
d="M50 600v150h10v-140h20v-10h-30zM90 600v150h10v-140h20v-10h-30z" />
    <glyph glyph-name="quotedblright" unicode="&#x201d;" horiz-adv-x="170" 
d="M120 750v-150h-10v140h-20v10h30zM80 750v-150h-10v140h-20v10h30z" />
    <glyph glyph-name="quotedblbase" unicode="&#x201e;" horiz-adv-x="170" 
d="M120 50v-150h-10v140h-20v10h30zM80 50v-150h-10v140h-20v10h30z" />
    <glyph glyph-name="bullet" unicode="&#x2022;" horiz-adv-x="250" 
d="M50 375q0 31 22 53t53 22t53 -22t22 -53t-22 -53t-53 -22t-53 22t-22 53z" />
    <glyph glyph-name="Euro" unicode="&#x20ac;" horiz-adv-x="525" 
d="M50 360v10h237v-10h-177q6 -146 112 -248t253 -102v-10q-152 0 -261 104.5t-114 255.5h-50zM50 380v10h50q6 150 114.5 255t260.5 105v-10q-147 0 -253 -102t-112 -248h177v-10h-237z" />
    <glyph glyph-name="minus" unicode="&#x2212;" horiz-adv-x="480" 
d="M430 370h-380v10h380v-10z" />
    </font>
</defs>
</svg>
